grf
version=1
nRows=19
nColumns=37
inDegrees=no
endheader
time	ground_force_1_vx	ground_force_1_vy	ground_force_1_vz	ground_force_1_px	ground_force_1_py	ground_force_1_pz	ground_moment_1_mx	ground_moment_1_my	ground_moment_1_mz	ground_force_2_vx	ground_force_2_vy	ground_force_2_vz	ground_force_2_px	ground_force_2_py	ground_force_2_pz	ground_moment_2_mx	ground_moment_2_my	ground_moment_2_mz	ground_force_3_vx	ground_force_3_vy	ground_force_3_vz	ground_force_3_px	ground_force_3_py	ground_force_3_pz	ground_moment_3_mx	ground_moment_3_my	ground_moment_3_mz	ground_force_4_vx	ground_force_4_vy	ground_force_4_vz	ground_force_4_px	ground_force_4_py	ground_force_4_pz	ground_moment_4_mx	ground_moment_4_my	ground_moment_4_mz
      4.11000000	      0.00000000	     -0.00000000	      0.00000000	      0.00000000	      0.00000000	      0.00000000	      0.00000000	      0.00000000	      0.00000000	      5.96900177	     23.11715508	   -377.29238892	   -301.56578572	  -1083.86117538	      0.00000000	      0.00000000	      0.00000000	  10003.14120632	     -0.70968809	    -20.71694749	   -391.01925659	   -279.00545940	   -732.01780215	      0.00000000	      0.00000000	     -0.00000000	 -11347.16252934	      0.00000000	     -0.00000000	      0.00000000	      0.00000000	      0.00000000	      0.00000000	      0.00000000	      0.00000000	      0.00000000
      4.12000000	      0.00000000	     -0.00000000	      0.00000000	      0.00000000	      0.00000000	      0.00000000	      0.00000000	      0.00000000	      0.00000000	      5.87966967	     24.06520844	   -377.13104248	   -301.43939478	  -1083.89349085	      0.00000000	     -0.00000000	      0.00000000	  10164.43620307	     -0.41990275	    -20.57895275	   -387.65139771	   -278.78372976	   -731.90220032	      0.00000000	      0.00000000	     -0.00000000	 -11213.98861715	      0.00000000	     -0.00000000	      0.00000000	      0.00000000	      0.00000000	      0.00000000	      0.00000000	      0.00000000	      0.00000000
      4.13000000	      0.00000000	     -0.00000000	      0.00000000	      0.00000000	      0.00000000	      0.00000000	      0.00000000	      0.00000000	      0.00000000	      5.00414610	     24.12365723	   -376.48980713	   -301.37978464	  -1084.42198288	      0.00000000	     -0.00000000	      0.00000000	  10030.16263214	      0.16940253	    -20.85190012	   -384.44750977	   -278.31714593	   -731.48952274	      0.00000000	      0.00000000	     -0.00000000	 -11231.71648770	      0.00000000	     -0.00000000	      0.00000000	      0.00000000	      0.00000000	      0.00000000	      0.00000000	      0.00000000	      0.00000000
      4.14000000	      0.00000000	     -0.00000000	      0.00000000	      0.00000000	      0.00000000	      0.00000000	      0.00000000	      0.00000000	      0.00000000	      4.12061644	     24.73987389	   -376.23721313	   -301.29491503	  -1084.63395004	      0.00000000	      0.00000000	      0.00000000	  10079.95745950	      0.18554542	    -20.41039850	   -381.65472412	   -278.87933746	   -732.48999558	      0.00000000	      0.00000000	     -0.00000000	 -11287.07186678	      0.00000000	     -0.00000000	      0.00000000	      0.00000000	      0.00000000	      0.00000000	      0.00000000	      0.00000000	      0.00000000
      4.15000000	      0.00000000	     -0.00000000	      0.00000000	      0.00000000	      0.00000000	      0.00000000	      0.00000000	      0.00000000	      0.00000000	      3.89091015	     25.23248482	   -377.27737427	   -301.34104715	  -1084.36239383	      0.00000000	      0.00000000	      0.00000000	  10073.61048998	      0.13818832	    -20.24208642	   -381.08673096	   -279.22853582	   -731.84590630	      0.00000000	     -0.00000000	     -0.00000000	 -11109.03300838	      0.00000000	     -0.00000000	      0.00000000	      0.00000000	      0.00000000	      0.00000000	      0.00000000	      0.00000000	      0.00000000
      4.16000000	      0.00000000	     -0.00000000	      0.00000000	      0.00000000	      0.00000000	      0.00000000	      0.00000000	      0.00000000	      0.00000000	      3.12236786	     25.43901253	   -380.30575562	   -301.88139169	  -1085.29596595	      0.00000000	     -0.00000000	      0.00000000	  10087.79605303	      0.19417808	    -20.73891069	   -380.16018677	   -279.25642007	   -731.57758322	      0.00000000	     -0.00000000	     -0.00000000	 -11068.71815370	      0.00000000	     -0.00000000	      0.00000000	      0.00000000	      0.00000000	      0.00000000	      0.00000000	      0.00000000	      0.00000000
      4.17000000	      0.00000000	     -0.00000000	      0.00000000	      0.00000000	      0.00000000	      0.00000000	      0.00000000	      0.00000000	      0.00000000	      2.89088988	     26.07986832	   -377.65438843	   -302.54317700	  -1083.49384068	      0.00000000	      0.00000000	      0.00000000	  10202.67121941	      0.15192013	    -20.20027734	   -379.21209717	   -279.76679982	   -731.15670598	      0.00000000	      0.00000000	     -0.00000000	 -11140.14066346	      0.00000000	     -0.00000000	      0.00000000	      0.00000000	      0.00000000	      0.00000000	      0.00000000	      0.00000000	      0.00000000
      4.18000000	      0.00000000	     -0.00000000	      0.00000000	      0.00000000	      0.00000000	      0.00000000	      0.00000000	      0.00000000	      0.00000000	      1.87342072	     26.22222519	   -380.62164307	   -301.57478987	  -1084.22675228	      0.00000000	      0.00000000	      0.00000000	  10214.56032794	      0.10592568	    -20.32255746	   -377.88369751	   -279.39522268	   -731.77717478	      0.00000000	      0.00000000	     -0.00000000	 -11152.62617440	      0.00000000	     -0.00000000	      0.00000000	      0.00000000	      0.00000000	      0.00000000	      0.00000000	      0.00000000	      0.00000000
      4.19000000	      0.00000000	     -0.00000000	      0.00000000	      0.00000000	      0.00000000	      0.00000000	      0.00000000	      0.00000000	      0.00000000	      1.31093776	     26.69379425	   -380.62020874	   -301.87689080	  -1085.56849786	      0.00000000	      0.00000000	      0.00000000	  10189.08504756	      0.31992512	    -19.88976100	   -377.01501465	   -279.56212888	   -731.39635025	      0.00000000	     -0.00000000	     -0.00000000	 -11180.47939677	      0.00000000	     -0.00000000	      0.00000000	      0.00000000	      0.00000000	      0.00000000	      0.00000000	      0.00000000	      0.00000000
      4.20000000	      0.00000000	     -0.00000000	      0.00000000	      0.00000000	      0.00000000	      0.00000000	      0.00000000	      0.00000000	      0.00000000	      1.01535606	     26.30265427	   -379.66845703	   -302.40970130	  -1084.41146482	      0.00000000	      0.00000000	      0.00000000	  10177.33531021	     -0.08871254	    -20.12853240	   -375.65231323	   -279.93744311	   -732.27469271	      0.00000000	      0.00000000	     -0.00000000	 -10887.18355477	      0.00000000	     -0.00000000	      0.00000000	      0.00000000	      0.00000000	      0.00000000	      0.00000000	      0.00000000	      0.00000000
      4.21000000	      0.00000000	     -0.00000000	      0.00000000	      0.00000000	      0.00000000	      0.00000000	      0.00000000	      0.00000000	      0.00000000	      0.15976372	     26.78164864	   -379.72616577	   -302.12422555	  -1085.31985410	      0.00000000	      0.00000000	      0.00000000	  10138.68885077	     -0.39864062	    -19.63424488	   -376.76995850	   -280.27230909	   -731.17472150	      0.00000000	     -0.00000000	     -0.00000000	 -11021.49980145	      0.00000000	     -0.00000000	      0.00000000	      0.00000000	      0.00000000	      0.00000000	      0.00000000	      0.00000000	      0.00000000
      4.22000000	      0.00000000	     -0.00000000	      0.00000000	      0.00000000	      0.00000000	      0.00000000	      0.00000000	      0.00000000	      0.00000000	     -0.13640288	     27.12819290	   -378.25573730	   -301.93628414	  -1082.58282631	      0.00000000	      0.00000000	      0.00000000	  10149.39255438	     -0.40030591	    -19.88143154	   -375.37380981	   -279.67458647	   -733.23782956	      0.00000000	      0.00000000	     -0.00000000	 -11181.56580462	      0.00000000	     -0.00000000	      0.00000000	      0.00000000	      0.00000000	      0.00000000	      0.00000000	      0.00000000	      0.00000000
      4.23000000	      0.00000000	     -0.00000000	      0.00000000	      0.00000000	      0.00000000	      0.00000000	      0.00000000	      0.00000000	      0.00000000	     -1.21070671	     26.64999008	   -379.63061523	   -302.33672226	  -1084.75764245	      0.00000000	     -0.00000000	      0.00000000	   9862.77401289	     -1.15324194	    -19.84485998	   -377.50543213	   -280.63689407	   -733.01753510	      0.00000000	      0.00000000	     -0.00000000	 -10806.00750355	      0.00000000	     -0.00000000	      0.00000000	      0.00000000	      0.00000000	      0.00000000	      0.00000000	      0.00000000	      0.00000000
      4.24000000	      0.00000000	     -0.00000000	      0.00000000	      0.00000000	      0.00000000	      0.00000000	      0.00000000	      0.00000000	      0.00000000	     -0.75241226	     26.49107552	   -380.02160645	   -302.17543141	  -1084.20637029	      0.00000000	      0.00000000	      0.00000000	  10093.43954800	     -0.93378166	    -20.14663688	   -379.41760254	   -281.16096565	   -732.16005819	      0.00000000	      0.00000000	     -0.00000000	 -11017.60885893	      0.00000000	     -0.00000000	      0.00000000	      0.00000000	      0.00000000	      0.00000000	      0.00000000	      0.00000000	      0.00000000
      4.25000000	      0.00000000	     -0.00000000	      0.00000000	      0.00000000	      0.00000000	      0.00000000	      0.00000000	      0.00000000	      0.00000000	     -0.66460562	     25.98598099	   -380.09933472	   -302.61153833	  -1083.74759606	      0.00000000	      0.00000000	      0.00000000	  10061.57503801	     -0.85520274	    -19.87237923	   -377.74478149	   -281.08336390	   -733.22802092	      0.00000000	      0.00000000	     -0.00000000	 -10969.15897520	      0.00000000	     -0.00000000	      0.00000000	      0.00000000	      0.00000000	      0.00000000	      0.00000000	      0.00000000	      0.00000000
      4.26000000	      0.00000000	     -0.00000000	      0.00000000	      0.00000000	      0.00000000	      0.00000000	      0.00000000	      0.00000000	      0.00000000	     -0.49556202	     25.63000679	   -380.68917847	   -303.18060755	  -1084.13635557	      0.00000000	      0.00000000	      0.00000000	   9931.84181976	     -1.07410747	    -19.74340811	   -377.63128662	   -281.36801239	   -731.97077086	      0.00000000	     -0.00000000	     -0.00000000	 -11045.94505313	      0.00000000	     -0.00000000	      0.00000000	      0.00000000	      0.00000000	      0.00000000	      0.00000000	      0.00000000	      0.00000000
      4.27000000	      0.00000000	     -0.00000000	      0.00000000	      0.00000000	      0.00000000	      0.00000000	      0.00000000	      0.00000000	      0.00000000	     -0.17842102	     26.16418457	   -379.98184204	   -303.87760678	  -1083.30326510	      0.00000000	      0.00000000	      0.00000000	   9971.82450729	     -2.04034984	    -20.39265424	   -376.42361450	   -280.77902087	   -732.79384656	      0.00000000	     -0.00000000	     -0.00000000	 -10870.37566028	      0.00000000	     -0.00000000	      0.00000000	      0.00000000	      0.00000000	      0.00000000	      0.00000000	      0.00000000	      0.00000000
      4.28000000	      0.00000000	     -0.00000000	      0.00000000	      0.00000000	      0.00000000	      0.00000000	      0.00000000	      0.00000000	      0.00000000	     -0.19875953	     25.61090469	   -377.71041870	   -303.68438730	  -1082.69055335	      0.00000000	      0.00000000	      0.00000000	   9926.30487105	     -1.63607158	    -20.70671639	   -374.98883057	   -281.38937800	   -733.37254609	      0.00000000	      0.00000000	     -0.00000000	 -11069.13747501	      0.00000000	     -0.00000000	      0.00000000	      0.00000000	      0.00000000	      0.00000000	      0.00000000	      0.00000000	      0.00000000
      4.29000000	      0.00000000	     -0.00000000	      0.00000000	      0.00000000	      0.00000000	      0.00000000	      0.00000000	      0.00000000	      0.00000000	     -0.15781520	     25.33362198	   -379.66845703	   -303.70790234	  -1084.53196469	      0.00000000	      0.00000000	      0.00000000	   9901.05474063	     -1.88283192	    -20.32389624	   -376.38543701	   -281.44136818	   -731.45003899	      0.00000000	      0.00000000	     -0.00000000	 -10974.99376124	      0.00000000	     -0.00000000	      0.00000000	      0.00000000	      0.00000000	      0.00000000	      0.00000000	      0.00000000	      0.00000000
